<!DOCTYPE svg PUBLIC "-//W3C//DTD SVG 1.1//EN" "http://www.w3.org/Graphics/SVG/1.1/DTD/svg11.dtd">
<!-- Uploaded to: SVG Repo, www.svgrepo.com, Transformed by: SVG Repo Mixer Tools -->
<svg fill="#6016fc" width="800px" height="800px" viewBox="-20 -20 240.00 240.00" data-name="Layer 1" id="Layer_1" xmlns="http://www.w3.org/2000/svg" stroke="#6016fc">
<g id="SVGRepo_bgCarrier" stroke-width="0">
<rect x="-20" y="-20" width="240.00" height="240.00" rx="120" fill="#e5d9fc" strokewidth="0"/>
</g>
<g id="SVGRepo_tracerCarrier" stroke-linecap="round" stroke-linejoin="round"/>
<g id="SVGRepo_iconCarrier">
<title/>
<path d="M177.68,43.9c-4.5-3.5-10.5-3-14,1.5l-74,89.5-55-40c-4.5-3-10.5-2.5-14,2-3,4.5-2.5,10.5,2,14l62.5,45.5a.49.49,0,0,1,.5.5c.5,0,.5.5,1,.5s.5.5,1,.5.5,0,1,.5h6c.5,0,.5,0,1-.5.5,0,.5-.5,1-.5s.5-.5,1-.5.5-.5,1-.5a.49.49,0,0,0,.5-.5l.5-.5,80-97C182.18,53.9,181.68,47.4,177.68,43.9Z"/>
</g>
</svg>